<?xml version="1.0" encoding="UTF-8" ?>
<!DOCTYPE svg PUBLIC "-//W3C//DTD SVG 1.1//EN" "http://www.w3.org/Graphics/SVG/1.1/DTD/svg11.dtd">
<svg width="256pt" height="256pt" viewBox="0 0 256 256" version="1.1" xmlns="http://www.w3.org/2000/svg">
<g id="#0099ccff">
<path fill="#0099cc" opacity="1.00" d=" M 19.45 0.00 L 237.46 0.00 C 241.75 1.50 246.11 3.34 249.36 6.64 C 252.66 9.86 254.63 14.15 256.00 18.49 L 256.00 237.49 C 253.77 246.83 246.03 254.30 236.55 256.00 L 18.52 256.00 C 14.23 254.49 9.88 252.65 6.63 249.36 C 3.34 246.14 1.38 241.85 0.00 237.52 L 0.00 19.44 C 1.55 9.60 9.76 1.77 19.45 0.00 M 32.28 20.67 C 35.23 32.19 42.76 41.79 49.61 51.27 C 60.12 69.80 70.43 88.46 80.93 107.00 C 84.11 112.33 86.08 118.30 89.59 123.46 C 91.33 125.64 90.08 128.48 89.72 130.91 C 85.45 152.62 81.10 174.31 76.74 196.00 C 71.51 193.84 66.77 190.69 61.62 188.35 C 60.00 192.18 63.51 194.68 65.64 197.30 C 72.65 205.30 79.37 213.55 86.53 221.41 C 87.62 221.49 88.71 221.57 89.80 221.65 C 90.12 218.58 88.40 214.57 91.77 212.73 C 107.54 200.63 123.22 188.40 139.10 176.44 C 144.01 181.06 147.92 186.60 152.50 191.53 C 154.07 193.38 156.29 195.27 155.88 197.98 C 155.22 208.70 153.44 219.32 152.53 230.01 C 152.52 233.22 151.78 237.41 155.06 239.37 C 157.88 240.10 160.23 237.94 162.32 236.39 C 168.54 231.11 174.71 225.77 180.92 220.48 C 179.75 218.23 178.14 216.25 176.98 214.00 C 177.49 212.12 179.41 211.12 180.97 210.22 C 185.11 212.37 189.06 215.69 194.01 215.40 C 196.28 215.16 198.42 215.90 200.50 216.72 C 200.18 214.14 200.12 211.54 200.40 208.95 C 200.93 204.64 198.48 200.84 197.30 196.87 C 197.21 194.67 199.90 193.33 201.81 193.15 C 203.65 194.56 205.01 196.53 206.99 197.78 C 210.32 195.59 213.10 192.70 216.15 190.15 C 220.36 186.31 225.19 183.08 228.82 178.66 C 230.94 175.63 228.47 171.85 224.99 171.66 C 213.04 170.43 200.98 170.54 188.98 170.00 C 186.01 170.06 184.60 167.05 182.81 165.18 C 178.72 160.03 173.91 155.44 170.20 150.00 C 171.24 147.90 173.36 146.61 175.00 145.01 C 188.35 132.23 201.71 119.45 215.07 106.68 C 217.41 107.25 219.77 107.71 222.17 107.97 C 223.53 104.18 219.91 101.75 217.89 99.12 C 211.48 91.85 205.35 84.33 198.90 77.11 C 197.68 75.46 195.65 75.12 193.76 74.84 C 194.81 80.62 197.60 85.88 199.03 91.56 C 180.00 91.35 161.03 93.31 142.01 93.55 C 136.79 93.81 131.50 94.73 126.31 93.65 C 122.26 90.33 118.01 87.24 113.61 84.37 C 96.13 70.87 78.82 57.15 61.36 43.63 C 56.26 39.78 52.33 34.66 47.45 30.57 C 42.76 26.76 37.96 22.91 32.28 20.67 Z" />
</g>
</svg>
